# xmcd
#
# Track frame offsets:
#   150
#   18946
#   33556
#   47348
#   67331
#   81704
#   97971
#   114292
#   133562
#   152999
#   170425
#   190489
#   209339
#   225842
#   242657
#   258245
#   272620
#   287115
#   301513
#
# Disc length: 4240 seconds
#
# Revision: 0
# Processed by: cddbd v1.5.2PL0 Copyright (c) Steve Scherf et al.
# Submitted via: uFREEDB ActiveX Control 1.5
#
DISCID=00108e13
DTITLE=felipao - felipao forro moral
DYEAR=1900
DGENRE=Alternative
TTITLE0=fel01
TTITLE1=fel02
TTITLE2=fel03
TTITLE3=fel04
TTITLE4=fel05
TTITLE5=fel06
TTITLE6=fel07
TTITLE7=fel08
TTITLE8=fel09
TTITLE9=fel10
TTITLE10=fel11
TTITLE11=fel12
TTITLE12=fel13
TTITLE13=fel14
TTITLE14=fel15
TTITLE15=fel16
TTITLE16=fel17
TTITLE17=fel18
TTITLE18=fel19
EXTD=
EXTT0=
EXTT1=
EXTT2=
EXTT3=
EXTT4=
EXTT5=
EXTT6=
EXTT7=
EXTT8=
EXTT9=
EXTT10=
EXTT11=
EXTT12=
EXTT13=
EXTT14=
EXTT15=
EXTT16=
EXTT17=
EXTT18=
PLAYORDER=
